<svg xmlns="http://www.w3.org/2000/svg" width="71.175" height="68" viewBox="0 0 71.175 68">
  <path id="图标_联盟-联联盟合买社区" d="M147.376,140.823c-1.739-6.783-5.391-12.348-10.435-15.826a16.66,16.66,0,0,0-9.391-26.261,14.156,14.156,0,0,0-7.13.7l-1.043.522a19.851,19.851,0,0,0-13.913-6.087,19.72,19.72,0,0,0-18.957,20.174,20.32,20.32,0,0,0,5.217,13.565c-7.13,4.348-12.348,11.652-14.783,20.522a11.764,11.764,0,0,0,1.913,9.913,9.324,9.324,0,0,0,7.3,3.826h39.478a9.074,9.074,0,0,0,7.3-3.826,10.826,10.826,0,0,0,2.261-5.913h4.7a7.331,7.331,0,0,0,5.913-2.957A9.434,9.434,0,0,0,147.376,140.823Zm-20,13.043a2.306,2.306,0,0,1-1.739,1.043H85.985a2.042,2.042,0,0,1-1.739-1.043,4.6,4.6,0,0,1-.7-4c2.435-8.87,8.174-15.652,15.652-18.261a3.657,3.657,0,0,0,2.261-2.957,3.28,3.28,0,0,0-1.739-3.3,13.424,13.424,0,0,1-6.435-11.478,12.449,12.449,0,1,1,24.87,0,13.424,13.424,0,0,1-6.435,11.478,3.579,3.579,0,0,0-1.739,3.3,3.657,3.657,0,0,0,2.261,2.957c7.478,2.609,13.217,9.565,15.652,18.261A4.007,4.007,0,0,1,127.376,153.867Zm12.87-8.87c-.174.174-.348.348-.522.348h-5.913A33.325,33.325,0,0,0,119.9,127.606a20.32,20.32,0,0,0,5.217-13.565,20.753,20.753,0,0,0-1.565-8.174,5.807,5.807,0,0,1,2.957-.174,8.734,8.734,0,0,1,6.957,8.348,9.246,9.246,0,0,1-4.348,8.87,3.448,3.448,0,0,0-1.565,3.3,3.923,3.923,0,0,0,2.261,2.957c5.043,1.913,9.217,6.957,10.783,13.391a2.749,2.749,0,0,1-.348,2.435Z" transform="translate(-76.575 -93.867)" fill="#00aa90"/>
</svg>
