<svg id="消息" xmlns="http://www.w3.org/2000/svg" width="72.461" height="65" viewBox="0 0 72.461 65">
  <path id="路径_1" data-name="路径 1" d="M245.38,350.854a5.006,5.006,0,1,1-5.006,5A5.007,5.007,0,0,1,245.38,350.854Zm-17.519,0a5,5,0,1,1-5,5A5,5,0,0,1,227.861,350.854Zm-17.519,0a5.006,5.006,0,1,1-5.007,5.006,5.005,5.005,0,0,1,5.007-5.006Z" transform="translate(-192.904 -330.859)" fill="#00aa90"/>
  <path id="路径_2" data-name="路径 2" d="M296.2,693.643a2.492,2.492,0,0,1-2.2-1.3l-8.5-14.906a2.5,2.5,0,1,1,4.345-2.478L296.2,686.09l6.352-11.131a2.5,2.5,0,0,1,4.347,2.478l-8.5,14.906a2.507,2.507,0,0,1-2.191,1.3Z" transform="translate(-266.545 -628.643)" fill="#00aa90"/>
  <path id="路径_3" data-name="路径 3" d="M106.674,143.171H83.587a2.5,2.5,0,0,1,0-5.007h23.087a5.813,5.813,0,0,0,5.929-5.677v-28.6a5.811,5.811,0,0,0-5.929-5.671H56.083a5.809,5.809,0,0,0-5.928,5.671v28.6a5.814,5.814,0,0,0,5.928,5.677H66.127a2.5,2.5,0,0,1,0,5.007H56.083A10.821,10.821,0,0,1,45.149,132.49V103.885A10.821,10.821,0,0,1,56.083,93.207h50.591a10.822,10.822,0,0,1,10.936,10.678v28.6A10.823,10.823,0,0,1,106.674,143.171Z" transform="translate(-45.149 -93.207)" fill="#00aa90"/>
</svg>
